<?xml version="1.0" encoding="UTF-8"?>
<svg id="Layer_3" data-name="Layer 3" xmlns="http://www.w3.org/2000/svg" viewBox="0 0 531.93 409.15">
  <path fill="#ffffff" d="m190.8.57c-3.14-1.38-5.71-.53-14.29,5.37-10.67,7.34-12.55,9.06-17.26,13.6-2.27,2.18-4.06,4.32-8.69,10.97-7.49,10.77-12.78,19.55-14.63,22.63-15.56,25.92-14.74,25.01-15.32,25.83-7.85,11.26-15.37,18.4-27.05,29.49-6.26,5.94-13.31,12.6-23.62,20.42-19.4,14.72-29.1,22.08-40.38,24.23-7.64,1.46-14.82,4.72-22.25,7.01C4.91,160.87,0,162.38,0,164.4c0,1.16,1.61,2.06,2.59,2.59,4.37,2.38,9.07,2.32,9.45,2.4,5.26,1.14,15.59,1.22,36.88,6.44,10.79,2.65,32.31,8.17,49.99,24.69,9.73,9.09,12.99,16.56,14.48,21.34.42,1.35,2.26,7.6,1.83,16-.37,7.08-2.14,11.57-5.18,19.96-11.63,32.08-9.33,25.45-12.88,32.88-.79,1.66-6.24,12.76-9.37,24.42-.53,1.99-.98,4.04-.3,4.42,1.76.99,9.72-10.06,13.87-15.85,16.99-23.71,16.8-29.99,26.82-36.42,8.89-5.71,17.78-6.38,20.57-6.55,11.82-.75,20.63,3.58,25.91,6.25,2.9,1.47,15.9,8.34,26.21,24.54,7.8,12.26,9.58,22.82,12.8,41.91,2.03,12.04,8.76,57.67,8.99,70.86.02,1,.05,4.67,1.07,4.88.9.19,2.15-2.43,2.59-3.35,6.72-14.1,5.49-62.02,5.49-62.02-.09-3.51-.11-8.18-.15-17.53-.12-27.64.54-33.89.61-57.91.03-11.35-.05-32.53-4.88-55.78-1.18-5.66-2.99-13.2-8.99-19.81-6.15-6.78-11.56-6.94-20.88-12.19-13.45-7.59-21.08-17.93-26.06-24.69-10.7-14.51-14.92-28.57-16.61-35.51-.74-3.05-4.12-17.52-1.98-36.57,2.42-21.58,10.53-36.73,12.65-40.54,7.31-13.13,10.97-19.69,17.68-25.45,4.51-3.87,11.42-8.55,10.52-13.41-.29-1.55-1.38-3.14-2.9-3.81Z"/>
  <path fill="#ffffff" d="m341.14.57c3.14-1.38,5.71-.53,14.29,5.37,10.67,7.34,12.55,9.06,17.26,13.6,2.27,2.18,4.06,4.32,8.69,10.97,7.49,10.77,12.78,19.55,14.63,22.63,15.56,25.92,14.74,25.01,15.32,25.83,7.85,11.26,15.37,18.4,27.05,29.49,6.26,5.94,13.31,12.6,23.62,20.42,19.4,14.72,29.1,22.08,40.38,24.23,7.64,1.46,14.82,4.72,22.25,7.01,2.41.74,7.31,2.25,7.31,4.27,0,1.16-1.61,2.06-2.59,2.59-4.37,2.38-9.07,2.32-9.45,2.4-5.26,1.14-15.59,1.22-36.88,6.44-10.79,2.65-32.31,8.17-49.99,24.69-9.73,9.09-12.99,16.56-14.48,21.34-.42,1.35-2.26,7.6-1.83,16,.37,7.08,2.14,11.57,5.18,19.96,11.63,32.08,9.33,25.45,12.88,32.88.79,1.66,6.24,12.76,9.37,24.42.53,1.99.98,4.04.3,4.42-1.76.99-9.72-10.06-13.87-15.85-16.99-23.71-16.8-29.99-26.82-36.42-8.89-5.71-17.78-6.38-20.57-6.55-11.82-.75-20.63,3.58-25.91,6.25-2.9,1.47-15.9,8.34-26.21,24.54-7.8,12.26-9.58,22.82-12.8,41.91-2.03,12.04-8.76,57.67-8.99,70.86-.02,1-.05,4.67-1.07,4.88-.9.19-2.15-2.43-2.59-3.35-6.72-14.1-5.49-62.02-5.49-62.02.09-3.51.11-8.18.15-17.53.12-27.64-.54-33.89-.61-57.91-.03-11.35.05-32.53,4.88-55.78,1.18-5.66,2.99-13.2,8.99-19.81,6.15-6.78,11.56-6.94,20.88-12.19,13.45-7.59,21.08-17.93,26.06-24.69,10.7-14.51,14.92-28.57,16.61-35.51.74-3.05,4.12-17.52,1.98-36.57-2.42-21.58-10.53-36.73-12.65-40.54-7.31-13.13-10.97-19.69-17.68-25.45-4.51-3.87-11.42-8.55-10.52-13.41.29-1.55,1.38-3.14,2.9-3.81Z"/>
</svg>
